<svg width="16" height="16" viewBox="0 0 16 16" fill="none" xmlns="http://www.w3.org/2000/svg">
<path d="M7.79558 8.262L7.8326 8.22498C7.85573 8.20185 7.88195 8.17563 7.90817 8.15095L7.95907 8.10159L8.11177 7.95044L8.32153 7.74685L8.4989 7.57102L8.66548 7.40599L8.83976 7.23324L9.00017 7.07592L9.22381 6.85536C9.26545 6.81372 9.31018 6.77208 9.35337 6.73197C9.43357 6.65794 9.5184 6.58699 9.60323 6.51759C9.68189 6.45589 9.76364 6.3942 9.84538 6.33559C9.96106 6.2523 10.0798 6.17827 10.2017 6.10423C10.3204 6.03483 10.4438 5.9685 10.5688 5.90681C10.686 5.84974 10.8078 5.7973 10.9297 5.74949C10.9975 5.72173 11.0669 5.69859 11.1363 5.67391C11.1718 5.66312 11.2057 5.65078 11.2428 5.63844C10.9343 4.41843 10.3667 3.28016 9.5801 2.29922C9.4274 2.10951 9.19605 2 8.9539 2H2.52224C2.45592 2 2.40039 2.05398 2.40039 2.12185C2.40039 2.16041 2.4189 2.19588 2.44975 2.21902C4.64453 3.8277 6.46606 5.89601 7.7817 8.27742L7.79558 8.262Z" fill="#00D6B9"/>
<path d="M5.23941 13.9219C8.56167 13.9219 11.4551 12.088 12.9636 9.37964C13.0176 9.28401 13.0685 9.18839 13.1178 9.09122C13.0422 9.2362 12.9574 9.37501 12.8649 9.50766C12.8325 9.55393 12.7985 9.59866 12.7646 9.64493C12.7199 9.702 12.6767 9.75444 12.6304 9.80842C12.5934 9.85006 12.5564 9.89171 12.5178 9.93181C12.4407 10.012 12.3605 10.0891 12.2757 10.1616C12.2279 10.2017 12.1816 10.2403 12.1322 10.2773C12.0752 10.322 12.0166 10.3637 11.958 10.4022C11.9209 10.4284 11.8824 10.4516 11.8438 10.4763C11.8053 10.4994 11.7652 10.5241 11.722 10.5472C11.6387 10.5935 11.5539 10.6367 11.4675 10.6752C11.3919 10.7076 11.3148 10.74 11.2377 10.7693C11.1528 10.8002 11.0696 10.8279 10.9801 10.8526C10.8505 10.8896 10.7194 10.9174 10.5852 10.9374C10.4896 10.9529 10.3909 10.9636 10.2937 10.9698C10.1904 10.9775 10.0871 10.9791 9.98218 10.9791C9.86651 10.9775 9.75083 10.9698 9.63361 10.9575C9.54724 10.9482 9.46086 10.9359 9.37449 10.9205C9.29892 10.9081 9.22334 10.8912 9.14931 10.8726C9.1092 10.8634 9.07065 10.8526 9.03054 10.8418C8.92104 10.8125 8.80999 10.7817 8.70048 10.7508C8.64495 10.7338 8.59097 10.72 8.53699 10.703C8.4537 10.6799 8.3735 10.6536 8.29329 10.6274C8.22697 10.6074 8.16065 10.5858 8.09587 10.5626C8.03418 10.5426 7.9694 10.5225 7.90616 10.5009L7.77814 10.4562C7.72725 10.4377 7.67326 10.4192 7.62237 10.4007L7.51286 10.3606C7.43882 10.3344 7.36633 10.3066 7.29384 10.2804C7.2522 10.2634 7.20901 10.2495 7.16737 10.2326C7.1103 10.211 7.05478 10.1878 6.99925 10.1662C6.94064 10.1431 6.88049 10.1184 6.82188 10.0953L6.7062 10.0475L6.56276 9.98888L6.45325 9.9426L6.33912 9.89325L6.24041 9.84852L6.15095 9.80842L6.05995 9.76678L5.96587 9.72205L5.8471 9.66652L5.72217 9.60791C5.67744 9.58632 5.63426 9.56627 5.58953 9.54313L5.47694 9.48761C3.50271 8.50204 1.72128 7.17406 0.212846 5.56229C0.166575 5.51448 0.0909995 5.51139 0.0416438 5.55612C0.0154236 5.57925 0 5.61319 0 5.64558L0.00308473 11.3215V11.7826C0.00308473 12.051 0.135728 12.3009 0.357829 12.4489C1.80148 13.4129 3.50117 13.925 5.23941 13.9219Z" fill="#3370FF"/>
<path d="M14.9996 5.92087C13.8783 5.37179 12.5951 5.25457 11.3936 5.59234C11.3427 5.60777 11.2933 5.62165 11.2424 5.63707C11.207 5.64787 11.173 5.65867 11.136 5.67255C11.0666 5.69568 10.9972 5.7219 10.9293 5.74812C10.8059 5.79594 10.6872 5.84838 10.5684 5.90544C10.4435 5.9656 10.3201 6.03192 10.2013 6.10132C10.078 6.17227 9.96073 6.24939 9.84505 6.33268C9.76177 6.39129 9.68156 6.45144 9.6029 6.51468C9.51653 6.58408 9.43478 6.65349 9.35304 6.72907C9.30831 6.76917 9.26667 6.80927 9.22348 6.85246L8.99984 7.07301L8.83943 7.23034L8.66514 7.40308L8.49857 7.56657L8.3212 7.7424L8.11452 7.94754L7.96183 8.09869L7.91093 8.14804C7.88779 8.17118 7.86157 8.1974 7.83535 8.22208L7.79834 8.25909L7.74127 8.31308C7.71968 8.33313 7.69962 8.35163 7.67649 8.37169C7.12432 8.88067 6.50738 9.31561 5.8457 9.66881L5.96446 9.72434L6.05855 9.76907L6.14955 9.81071L6.23901 9.85081L6.33772 9.89554L6.45185 9.9449L6.56136 9.99117L6.7048 10.0498L6.82048 10.0976C6.87909 10.1207 6.93924 10.1454 6.99785 10.1685C7.05337 10.1901 7.11044 10.2133 7.16597 10.2349C7.20761 10.2518 7.2508 10.2657 7.29244 10.2827C7.36647 10.3104 7.43897 10.3367 7.51146 10.3629L7.62096 10.403C7.67186 10.4215 7.7243 10.44 7.77674 10.4585L7.90476 10.5032C7.96645 10.5233 8.02969 10.5449 8.09447 10.5649C8.16079 10.5865 8.22711 10.6066 8.29189 10.6297C8.3721 10.6559 8.45538 10.6791 8.53559 10.7053C8.59111 10.7222 8.64509 10.7377 8.69908 10.7531C8.80859 10.7839 8.91964 10.8148 9.02914 10.8441C9.06924 10.8549 9.1078 10.8641 9.14791 10.8749C9.22348 10.8935 9.29906 10.9073 9.37309 10.9228C9.45946 10.9382 9.54584 10.9505 9.63221 10.9598C9.74943 10.9721 9.8651 10.9798 9.98078 10.9814C10.0857 10.9829 10.1905 10.9798 10.2923 10.9721C10.3911 10.9644 10.4882 10.9536 10.5838 10.9397C10.7165 10.9197 10.8476 10.8904 10.9787 10.8549C11.0651 10.8318 11.1514 10.804 11.2363 10.7716C11.3134 10.7438 11.3905 10.713 11.4661 10.6775C11.5525 10.639 11.6388 10.5942 11.7206 10.5495C11.7607 10.5279 11.8008 10.5032 11.8424 10.4786C11.8825 10.4554 11.9195 10.4292 11.9565 10.4045C12.0152 10.3644 12.0738 10.3243 12.1308 10.2796C12.1802 10.2426 12.228 10.204 12.2743 10.1639C12.3576 10.093 12.4378 10.0158 12.5149 9.9341C12.5534 9.894 12.5905 9.8539 12.6275 9.81071C12.6738 9.75673 12.7185 9.70275 12.7617 9.64722C12.7971 9.60249 12.8295 9.55776 12.8619 9.50995C12.9529 9.37731 13.0377 9.24004 13.1133 9.0966L13.1997 8.92539L13.9693 7.39691L13.9786 7.3784C14.2315 6.83241 14.5755 6.34039 14.9996 5.92087Z" fill="#133C9A"/>
</svg>
