<svg width="20" height="20" viewBox="0 0 20 20" fill="none" xmlns="http://www.w3.org/2000/svg">
<path d="M13.7284 14.9063C12.3685 16.0072 10.6366 16.6667 8.75065 16.6667C4.3784 16.6667 0.833984 13.1222 0.833984 8.74999C0.833984 4.37774 4.3784 0.833328 8.75065 0.833328C13.1229 0.833328 16.6673 4.37774 16.6673 8.74999C16.6673 10.636 16.0078 12.3679 14.9069 13.7278L18.0507 16.8716C18.3742 17.195 18.3681 17.7205 18.0446 18.044C17.7212 18.3674 17.1957 18.3735 16.8722 18.0501L13.7284 14.9063ZM15.0007 8.74999C15.0007 5.29822 12.2024 2.49999 8.75065 2.49999C5.29887 2.49999 2.50065 5.29822 2.50065 8.74999C2.50065 12.2018 5.29887 15 8.75065 15C12.2024 15 15.0007 12.2018 15.0007 8.74999Z" fill="#8F959E"/>
</svg>
